<svg width="24" height="24" viewBox="0 0 24 24" fill="none" xmlns="http://www.w3.org/2000/svg">
<path d="M21.9891 7.78306C21.9001 9.62326 20.5403 12.1431 17.9103 15.3412C15.1911 18.682 12.8904 20.3522 11.0084 20.3522C9.84303 20.3522 8.85602 19.3352 8.05042 17.3005C7.51202 15.4354 6.97421 13.5705 6.43601 11.7053C5.8374 9.67175 5.1956 8.65363 4.5094 8.65363C4.35979 8.65363 3.83619 8.95118 2.93979 9.54402L1.99878 8.39816C2.98579 7.57834 3.95959 6.75871 4.9176 5.93796C6.23401 4.86267 7.22221 4.29719 7.88082 4.24002C9.43743 4.0987 10.3954 5.10436 10.755 7.25721C11.1436 9.57986 11.4124 11.0246 11.5636 11.5901C12.0122 13.5171 12.5058 14.4793 13.0453 14.4793C13.4639 14.4793 14.0927 13.8544 14.9311 12.6046C15.7687 11.3544 16.2173 10.4033 16.2779 9.74987C16.3971 8.67099 15.9483 8.13023 14.9311 8.13023C14.4523 8.13023 13.9587 8.23438 13.4509 8.44023C14.4337 5.39701 16.3117 3.91907 19.0837 4.00341C21.1387 4.0604 22.1075 5.32022 21.9891 7.78306Z" fill="#17D5FF"/>
</svg>
